/* XPM */
static char * hide_prelight_xpm[] = {
"24 26 4 1",
" 	c None",
".	c #1f292e",
"+	c #4bb775 s active_color_1",
"@	c #4bb775",
"@@@@@@@@@@@@@@@@@@@@@@@@",
"........................",
"........................",
"........................",
"........................",
"........................",
"........................",
"........................",
"........................",
"........................",
"........................",
"........................",
"........++++++++........",
"........++++++++........",
"........................",
"........................",
"........................",
"........................",
"........................",
"........................",
"........................",
"........................",
"........................",
"........................",
"........................",
"........................"};
